<svg width="160" height="48" viewBox="0 0 160 48" fill="none" xmlns="http://www.w3.org/2000/svg">
  <!-- B -->
  <rect x="4" y="8" width="4" height="32" fill="#78d2b9"/>
  <rect x="8" y="8" width="8" height="4" fill="#78d2b9"/>
  <rect x="16" y="12" width="4" height="4" fill="#78d2b9"/>
  <rect x="8" y="22" width="8" height="4" fill="#78d2b9"/>
  <rect x="16" y="26" width="4" height="4" fill="#78d2b9"/>
  <rect x="8" y="36" width="8" height="4" fill="#78d2b9"/>
  <rect x="16" y="30" width="4" height="6" fill="#78d2b9"/>
  
  <!-- i -->
  <rect x="26" y="16" width="4" height="24" fill="#78d2b9"/>
  <rect x="26" y="8" width="4" height="4" fill="#78d2b9"/>
  
  <!-- t -->
  <rect x="36" y="12" width="4" height="28" fill="#78d2b9"/>
  <rect x="32" y="16" width="12" height="4" fill="#78d2b9"/>
  
  <!-- L -->
  <rect x="50" y="8" width="4" height="32" fill="#78d2b9"/>
  <rect x="54" y="36" width="12" height="4" fill="#78d2b9"/>
  
  <!-- o -->
  <rect x="72" y="16" width="4" height="24" fill="#78d2b9"/>
  <rect x="84" y="16" width="4" height="24" fill="#78d2b9"/>
  <rect x="76" y="16" width="8" height="4" fill="#78d2b9"/>
  <rect x="76" y="36" width="8" height="4" fill="#78d2b9"/>
  
  <!-- o -->
  <rect x="94" y="16" width="4" height="24" fill="#78d2b9"/>
  <rect x="106" y="16" width="4" height="24" fill="#78d2b9"/>
  <rect x="98" y="16" width="8" height="4" fill="#78d2b9"/>
  <rect x="98" y="36" width="8" height="4" fill="#78d2b9"/>
  
  <!-- p -->
  <rect x="116" y="16" width="4" height="32" fill="#78d2b9"/>
  <rect x="120" y="16" width="8" height="4" fill="#78d2b9"/>
  <rect x="128" y="20" width="4" height="8" fill="#78d2b9"/>
  <rect x="120" y="28" width="8" height="4" fill="#78d2b9"/>
  
  <!-- s -->
  <rect x="138" y="16" width="12" height="4" fill="#78d2b9"/>
  <rect x="138" y="20" width="4" height="6" fill="#78d2b9"/>
  <rect x="142" y="26" width="8" height="4" fill="#78d2b9"/>
  <rect x="146" y="30" width="4" height="6" fill="#78d2b9"/>
  <rect x="138" y="36" width="12" height="4" fill="#78d2b9"/>
</svg>
